<svg width="175" height="66" viewBox="0 0 175 66" fill="none" xmlns="http://www.w3.org/2000/svg">
<path d="M2.10889 63.8441V49.4121H10.0063C10.7243 49.4121 11.3973 49.5441 12.0031 49.8301C12.6089 50.1161 13.1474 50.4901 13.5736 50.9741C14.0224 51.4581 14.3589 51.9861 14.6057 52.5801C14.8525 53.1741 14.9647 53.7901 14.9647 54.3841C14.9647 55.2421 14.7627 56.0341 14.3589 56.8041C13.955 57.5741 13.3941 58.1901 12.6538 58.6741C11.9358 59.1581 11.0832 59.4001 10.1185 59.4001H6.14735V63.8441H2.10889ZM6.14735 55.9461H9.82684C9.98389 55.9461 10.1409 55.9021 10.298 55.8141C10.455 55.7261 10.5672 55.5501 10.6794 55.3301C10.7916 55.1101 10.8365 54.8021 10.8365 54.4061C10.8365 54.0101 10.7691 53.6801 10.657 53.4601C10.5448 53.2401 10.3877 53.0861 10.2307 52.9981C10.0512 52.9101 9.89414 52.8661 9.71466 52.8661H6.14735V55.9461Z" fill="white"/>
<path d="M26.6089 63.8441V49.4121H34.9102C35.6281 49.4121 36.3012 49.5441 36.907 49.8301C37.5127 50.1161 38.0512 50.4901 38.4775 50.9741C38.9262 51.4581 39.2627 51.9861 39.5095 52.5801C39.7563 53.1741 39.8685 53.7901 39.8685 54.3841C39.8685 54.9341 39.7788 55.4841 39.6217 55.9901C39.4647 56.4961 39.2179 56.9801 38.9038 57.3981C38.5897 57.8161 38.2082 58.1901 37.7595 58.4981L40.8781 63.8001H36.4358L33.8332 59.3561H30.6473V63.8001H26.6089V63.8441ZM30.6473 55.9461H34.7531C34.9102 55.9461 35.0672 55.8801 35.2243 55.7701C35.3813 55.6381 35.4935 55.4621 35.6057 55.2421C35.7179 55.0221 35.7627 54.7361 35.7627 54.4061C35.7627 54.0761 35.6954 53.7901 35.5832 53.5701C35.4711 53.3501 35.314 53.1741 35.157 53.0421C34.9775 52.9101 34.8204 52.8661 34.6409 52.8661H30.6473V55.9461Z" fill="white"/>
<path d="M172.891 52.8661H167.192V63.8441H163.154V52.8661H157.433V49.4121H172.891V52.8661Z" fill="white"/>
<path d="M167.102 30.0084L143.522 29.9424C141.391 29.9424 139.461 28.7764 138.474 26.9284C137.487 25.0804 137.622 22.8804 138.833 21.1644L150.567 4.46636C151.622 2.97036 153.372 2.06836 155.234 2.06836C157.096 2.06836 158.868 2.97036 159.923 4.48836L171.769 21.2524C172.981 22.9684 173.115 25.1904 172.128 27.0384C171.141 28.8864 169.211 30.0084 167.102 30.0084ZM145.205 23.4524L165.33 23.5184L155.211 9.19636L145.205 23.4524Z" fill="white"/>
<path d="M106.256 29.8982C99.6826 29.8982 96.9454 23.1882 94.4999 17.2702C92.9294 13.4422 90.9999 8.6902 88.8909 8.6902C86.7819 8.6902 84.83 13.4422 83.2819 17.2702C80.8589 23.1882 78.0993 29.8982 71.5255 29.8982C64.9518 29.8982 62.2146 23.1882 59.7691 17.2702C58.1986 13.4422 56.2691 8.6902 54.1602 8.6902V2.2002C60.7339 2.2002 63.4711 8.91019 65.9166 14.8282C67.4871 18.6562 69.4166 23.4082 71.5255 23.4082C73.6345 23.4082 75.5864 18.6562 77.1345 14.8282C79.5576 8.93219 82.3172 2.2002 88.8909 2.2002C95.4646 2.2002 98.2018 8.91019 100.647 14.8282C102.218 18.6562 104.147 23.4082 106.256 23.4082C108.365 23.4082 110.317 18.6562 111.865 14.8282C114.288 8.93219 117.026 2.2002 123.599 2.2002V8.6902C121.49 8.6902 119.538 13.4422 117.99 17.2702C115.567 23.1882 112.808 29.8982 106.234 29.8982H106.256Z" fill="white"/>
<path d="M35.2916 2.2002H2.10889V8.6682H35.2916V2.2002Z" fill="white"/>
<path d="M35.2916 23.4736H2.10889V29.9416H35.2916V23.4736Z" fill="white"/>
<path d="M59.1187 49.3896C55.0578 49.3896 51.7598 52.6236 51.7598 56.6056C51.7598 60.5876 55.0578 63.8216 59.1187 63.8216C63.1796 63.8216 66.4777 60.5876 66.4777 56.6056C66.4777 52.6236 63.1796 49.3896 59.1187 49.3896ZM59.1187 60.0596C57.1668 60.0596 55.5963 58.5196 55.5963 56.6056C55.5963 54.6916 57.1668 53.1516 59.1187 53.1516C61.0707 53.1516 62.6412 54.6916 62.6412 56.6056C62.6412 58.5196 61.0707 60.0596 59.1187 60.0596Z" fill="white"/>
<path d="M115.993 49.4336V56.0996C115.993 58.2336 114.221 59.9716 112.045 59.9716C109.868 59.9716 108.096 58.2336 108.096 56.0996V49.4336H104.349V56.2976C104.349 60.4336 107.804 63.8216 112.022 63.8216C116.24 63.8216 119.695 60.4336 119.695 56.2976V49.4336H115.948H115.993Z" fill="white"/>
<path d="M135.019 56.6282C135.019 54.5822 136.724 52.9102 138.811 52.9102H145.362V49.3682H138.609C134.526 49.3682 131.205 52.6242 131.205 56.6282C131.205 60.6322 134.526 63.8882 138.609 63.8882H145.362V60.3462H138.811C136.724 60.3462 135.019 58.6742 135.019 56.6282Z" fill="white"/>
<path d="M86.1765 49.3242H79.3784V63.9322H86.1765C90.2823 63.9322 93.6252 60.6322 93.6252 56.6282C93.6252 52.6242 90.2598 49.3242 86.1765 49.3242ZM85.9746 60.3902H83.4169V52.8882H85.9746C88.0835 52.8882 89.8111 54.5822 89.8111 56.6502C89.8111 58.7182 88.0835 60.4122 85.9746 60.4122V60.3902Z" fill="white"/>
</svg>
